<mxfile host="app.diagrams.net" modified="2024-03-27T06:18:46.353Z" agent="Mozilla/5.0 (Windows NT 10.0; Win64; x64) AppleWebKit/537.36 (KHTML, like Gecko) Chrome/123.0.0.0 Safari/537.36" version="24.1.0" etag="41W4GiX5v7wTcgzqst6X" type="github">
  <diagram name="Page-1" id="0ZeODY2rkwx9v6a-Vhrm">
    <mxGraphModel>
      <root>
        <mxCell id="0" />
        <mxCell id="1" parent="0" />
      </root>
    </mxGraphModel>
  </diagram>
</mxfile>
